<?xml version="1.0" standalone="no"?>
<!DOCTYPE svg PUBLIC "-//W3C//DTD SVG 20010904//EN"
 "http://www.w3.org/TR/2001/REC-SVG-20010904/DTD/svg10.dtd">
<svg version="1.0" xmlns="http://www.w3.org/2000/svg"
 width="500.000000pt" height="500.000000pt" viewBox="0 0 500.000000 500.000000"
 preserveAspectRatio="xMidYMid meet">
<metadata>
Created by potrace 1.14, written by Peter Selinger 2001-2017
</metadata>
<g transform="translate(0.000000,500.000000) scale(0.100000,-0.100000)"
fill="#000000" stroke="none">
<path d="M2575 4183 c-27 -32 -40 -56 -39 -75 0 -23 -5 -30 -25 -34 -90 -20
-154 -61 -200 -128 -52 -76 -58 -113 -60 -351 -1 -121 -3 -221 -5 -222 -1 -2
-56 49 -122 112 -65 63 -134 122 -152 130 -37 19 -125 18 -161 -1 -14 -7 -97
-85 -186 -173 -177 -175 -191 -198 -179 -288 8 -60 10 -63 151 -205 l117 -118
-100 0 c-291 -2 -311 -4 -379 -35 -68 -31 -140 -123 -160 -203 -9 -33 -18 -48
-31 -50 -40 -8 -139 -122 -105 -122 4 0 26 -18 47 -40 21 -21 49 -40 63 -42
18 -2 25 -10 27 -31 8 -75 104 -184 192 -218 52 -20 77 -22 264 -23 l208 -1
-125 -125 c-68 -69 -134 -138 -146 -154 -26 -33 -33 -109 -15 -159 12 -36 315
-350 360 -374 38 -20 124 -23 158 -6 15 7 40 25 55 39 67 62 121 115 168 165
l50 53 5 -195 c5 -187 6 -196 33 -251 41 -84 122 -147 209 -163 37 -7 52 -24
42 -48 -2 -7 17 -36 43 -65 l48 -52 48 46 c38 37 47 52 47 80 0 20 5 34 13 35
45 3 128 40 170 79 34 29 74 95 88 142 5 18 9 120 9 227 1 186 1 193 18 172 9
-12 51 -54 91 -94 41 -40 93 -91 115 -114 23 -23 57 -48 76 -56 40 -16 109
-15 154 2 35 14 334 314 347 348 17 46 21 121 8 160 -9 27 -51 77 -144 170
-73 73 -129 134 -126 134 3 1 85 2 181 4 234 3 280 17 358 106 52 59 76 106
81 162 1 4 9 7 19 7 18 0 112 84 112 99 0 19 -95 106 -112 103 -12 -2 -18 3
-18 17 0 37 -38 121 -74 166 -22 26 -59 55 -94 72 -54 27 -65 28 -212 31 -85
1 -176 2 -201 2 l-46 0 130 133 c71 72 133 143 138 155 13 35 13 93 -1 127
-15 39 -314 341 -360 364 -44 22 -104 26 -152 9 -25 -9 -79 -55 -162 -136
l-124 -123 0 68 c1 336 -3 410 -26 459 -13 27 -35 63 -49 80 -37 43 -121 96
-166 103 -33 6 -36 10 -39 41 -2 25 -15 47 -45 78 -23 23 -46 42 -52 42 -5 0
-28 -21 -50 -47z m47 -540 c0 -175 -1 -347 -1 -382 l-1 -64 -120 -118 c-66
-65 -120 -113 -121 -106 0 7 -1 197 -1 424 -1 312 2 420 12 445 21 55 85 105
154 121 34 8 65 11 70 6 5 -4 9 -151 8 -326z m-576 -297 c106 -104 122 -125
110 -136 -18 -14 -44 2 -115 72 l-44 43 -113 -114 c-63 -62 -114 -117 -114
-122 0 -4 25 -33 55 -64 47 -49 53 -59 41 -71 -8 -8 -20 -14 -26 -14 -6 0 -60
50 -120 110 -80 81 -110 118 -110 135 0 18 33 58 123 149 67 68 129 126 137
129 38 14 58 1 176 -117z m1465 -8 c82 -84 129 -139 129 -152 0 -19 -143 -175
-168 -184 -5 -1 -15 4 -22 13 -11 13 -9 20 13 43 l27 28 -64 64 c-34 36 -90
91 -124 123 l-61 57 -42 -45 c-33 -36 -45 -43 -56 -34 -11 10 6 31 89 114 69
67 111 102 127 103 18 1 55 -31 152 -130z m-274 -179 l50 -51 -341 -345 c-188
-190 -488 -493 -667 -673 l-327 -328 -48 49 -48 49 67 68 68 69 -28 59 c-25
53 -28 70 -28 164 0 95 3 110 27 155 18 35 121 144 340 362 172 172 324 321
337 332 78 67 260 81 354 29 l47 -27 67 69 c38 38 71 69 74 69 4 1 29 -22 56
-50z m-1127 -468 c0 -2 -55 -59 -123 -127 l-123 -123 -347 1 c-248 0 -347 4
-348 12 -5 39 4 96 19 125 25 47 82 92 135 105 39 10 787 17 787 7z m1443
-863 c100 -97 123 -132 108 -170 -5 -13 -63 -76 -129 -142 -152 -150 -155
-151 -243 -59 -35 37 -88 90 -116 118 -49 48 -52 52 -36 68 16 16 21 13 84
-49 l67 -67 121 122 121 122 -37 37 c-70 68 -77 80 -63 97 7 8 16 15 20 15 4
0 50 -42 103 -92z m-1768 -30 l-17 -30 121 -121 c104 -104 124 -120 134 -107
7 8 27 28 45 45 25 22 35 26 41 17 11 -17 -165 -198 -202 -207 -24 -6 -39 5
-160 126 -74 74 -136 143 -139 155 -7 26 5 43 89 126 l67 67 20 -21 c18 -20
18 -21 1 -50z"/>
</g>
</svg>
